<?xml version="1.0" standalone="no"?>
<!DOCTYPE svg PUBLIC "-//W3C//DTD SVG 20010904//EN"
 "http://www.w3.org/TR/2001/REC-SVG-20010904/DTD/svg10.dtd">
<svg version="1.0" xmlns="http://www.w3.org/2000/svg"
 width="90.000000pt" height="25.000000pt" viewBox="0 0 90.000000 25.000000"
 preserveAspectRatio="xMidYMid meet">

<g transform="translate(0.000000,25.000000) scale(0.100000,-0.100000)"
fill="#000000" stroke="none">
<path d="M14 179 c-3 -6 6 -23 20 -38 30 -32 24 -48 -11 -26 -13 9 -23 12 -23
7 0 -15 24 -32 47 -32 30 0 30 26 1 57 -19 20 -19 23 -4 23 9 0 14 5 11 10 -8
13 -32 13 -41 -1z"/>
<path d="M99 138 c3 -29 6 -46 8 -37 2 9 15 21 28 27 44 20 27 62 -23 62 -14
0 -16 -8 -13 -52z m39 20 c-6 -18 -28 -21 -28 -4 0 9 7 16 16 16 9 0 14 -5 12
-12z"/>
<path d="M217 170 c-14 -21 -16 -21 -25 -3 -6 10 -13 15 -16 12 -4 -3 3 -17
14 -31 10 -14 17 -28 14 -31 -3 -3 -3 -11 2 -18 4 -8 12 7 20 37 14 56 12 64
-9 34z"/>
<path d="M303 179 c11 -6 17 -22 17 -44 0 -19 5 -37 10 -40 6 -4 10 10 10 34
0 28 5 43 18 50 13 8 7 10 -28 10 -35 0 -41 -2 -27 -10z"/>
<path d="M388 145 c4 -43 22 -65 22 -27 1 14 3 14 19 -5 24 -29 35 -30 20 -2
-7 15 -8 24 0 32 17 17 -6 47 -37 47 -26 0 -27 -2 -24 -45z m50 13 c-6 -18
-28 -21 -28 -4 0 9 7 16 16 16 9 0 14 -5 12 -12z"/>
<path d="M494 173 c-3 -10 -10 -28 -15 -41 -14 -36 -11 -42 15 -32 15 5 27 5
35 -3 14 -14 15 5 0 56 -11 39 -26 48 -35 20z m26 -38 c0 -8 -4 -15 -10 -15
-5 0 -10 7 -10 15 0 8 5 15 10 15 6 0 10 -7 10 -15z"/>
<path d="M558 185 c-8 -8 21 -95 31 -95 4 0 14 23 23 50 9 28 12 50 7 50 -5 0
-12 -8 -15 -17 -15 -47 -16 -48 -28 -15 -6 18 -14 30 -18 27z"/>
<path d="M645 145 c1 -25 4 -47 6 -50 3 -2 18 0 35 4 l29 9 -27 1 c-30 1 -41
31 -11 31 15 0 14 2 -3 14 -18 14 -18 15 6 25 25 10 25 10 -6 10 -32 1 -32 0
-29 -44z"/>
<path d="M728 184 c-5 -4 -8 -25 -8 -46 0 -37 1 -38 33 -37 22 1 25 3 10 6
-18 3 -23 12 -25 45 -2 22 -6 36 -10 32z"/>
<path d="M804 179 c-3 -6 6 -23 21 -39 30 -32 17 -54 -16 -24 -10 9 -19 13
-19 8 0 -16 23 -34 42 -34 29 0 33 28 8 56 -20 21 -21 24 -6 24 9 0 14 5 11
10 -8 13 -32 13 -41 -1z"/>
</g>
</svg>
