<?xml version="1.0" standalone="no"?>
<!DOCTYPE svg PUBLIC "-//W3C//DTD SVG 20010904//EN"
 "http://www.w3.org/TR/2001/REC-SVG-20010904/DTD/svg10.dtd">
<svg version="1.0" xmlns="http://www.w3.org/2000/svg"
 width="50.000000pt" height="50.000000pt" viewBox="0 0 50.000000 50.000000"
 preserveAspectRatio="xMidYMid meet">

<g transform="translate(0.000000,50.000000) scale(0.100000,-0.100000)"
fill="#000000" stroke="none">
<path d="M182 410 c-34 -21 -66 -79 -60 -108 4 -18 15 -19 96 -8 44 7 52 6 52
-8 0 -19 -35 -34 -97 -43 -49 -7 -54 -15 -17 -32 29 -13 60 -7 87 17 15 14 19
14 35 -1 9 -8 29 -19 44 -22 23 -6 33 -2 59 26 21 22 39 32 60 32 25 0 29 4
27 21 -2 15 -14 24 -40 30 -25 6 -38 16 -42 31 -3 13 -22 37 -41 54 -29 25
-44 31 -83 31 -29 0 -59 -8 -80 -20z"/>
</g>
</svg>
